<svg width="55" height="60" viewBox="0 0 55 60" fill="none" xmlns="http://www.w3.org/2000/svg">
<path d="M15.3134 12.9057H30.4313C32.2219 12.9057 33.6719 11.4547 33.6719 9.6641V9.2918V6.7902V6.41801C33.6719 4.62738 32.2219 3.17637 30.4313 3.17637H26.3344C26.1706 1.39793 24.6927 0 22.8723 0C21.0501 0 19.5721 1.39793 19.4083 3.17637H15.3134C13.5226 3.17637 12.0708 4.62738 12.0708 6.41801V6.7902V9.29191V9.66422C12.0708 11.4548 13.5226 12.9057 15.3134 12.9057ZM22.8723 1.90605C23.749 1.90605 24.4601 2.61715 24.4601 3.49371C24.4601 4.37133 23.749 5.08242 22.8723 5.08242C21.9938 5.08242 21.2827 4.37133 21.2827 3.49371C21.2827 2.61703 21.9937 1.90605 22.8723 1.90605Z" fill="#006C8E"/>
<path d="M53.3037 18.8667C53.3131 18.8752 53.3187 18.8854 53.3261 18.8946C53.3335 18.9011 53.3429 18.9058 53.3484 18.9122L53.3037 18.8667Z" fill="#006C8E"/>
<path d="M53.3261 18.8947C52.2799 17.8691 50.601 17.8728 49.5625 18.9123L47.1799 21.2948L50.9213 25.0362L53.3038 22.6536C54.3404 21.6159 54.3461 19.9407 53.3261 18.8947Z" fill="#006C8E"/>
<path d="M29.9585 47.1054L38.0778 38.9871L33.229 34.1382L25.1098 42.2584C24.6239 42.7451 24.6239 43.5362 25.1098 44.0238L28.1921 47.1053C28.6798 47.5931 29.4709 47.5931 29.9585 47.1054Z" fill="#006C8E"/>
<path d="M22.6044 48.9621L21.4802 50.0883L22.1279 50.737L23.2541 49.6118L28.0806 48.0314L24.1847 44.1366L22.6044 48.9621Z" fill="#006C8E"/>
<path d="M41.9327 11.8104V22.7412L45.7448 18.9291V12.0337C45.7448 9.04991 43.325 6.63104 40.3413 6.63104H35.578V9.66409C35.578 10.0289 35.539 10.3854 35.4663 10.7298H40.8512C41.4487 10.7298 41.9327 11.2138 41.9327 11.8104Z" fill="#006C8E"/>
<path d="M41.9327 53.5829C41.9327 54.1795 41.4488 54.6634 40.8512 54.6634H4.89164C4.29598 54.6634 3.81211 54.1794 3.81211 53.5829V11.8103C3.81211 11.2137 4.29609 10.7298 4.89164 10.7298H10.2785C10.2059 10.3855 10.165 10.0289 10.165 9.66409V6.63104H5.40164C2.41781 6.63104 0 9.04991 0 12.0337V54.5974C0 57.5811 2.41793 60 5.40164 60H40.3412C43.3249 60 45.7447 57.5811 45.7447 54.5974V34.0145L41.9326 37.8266V53.5829H41.9327Z" fill="#006C8E"/>
<path d="M34.0945 33.2728L38.9434 38.1207L50.7723 26.2909L45.9253 21.4439L34.0945 33.2728ZM47.0793 25.1358C47.4982 25.5537 47.4982 26.2331 47.0793 26.6509L41.324 32.4071C40.9053 32.825 40.2276 32.825 39.8089 32.4071C39.3901 31.9893 39.3901 31.3098 39.8089 30.8919L45.5661 25.1357C45.9829 24.7179 46.6624 24.7179 47.0793 25.1358Z" fill="#006C8E"/>
<path d="M7.95166 21.3813L11.7788 25.2102L13.171 23.818L16.9998 19.9891L15.6075 18.5978L11.7788 22.4257L9.34408 19.9891L7.95166 21.3813Z" fill="#006C8E"/>
<path d="M15.6075 28.6044L11.7788 32.4323L9.34408 29.9958L7.95166 31.3881L11.7788 35.2169L13.171 33.8246L16.9998 29.9958L15.6075 28.6044Z" fill="#006C8E"/>
<path d="M9.34408 40.0024L7.95166 41.3947L11.7788 45.2236L13.171 43.8313L16.9998 40.0024L15.6075 38.6111L11.7788 42.439L9.34408 40.0024Z" fill="#006C8E"/>
</svg>
