<svg width="18" height="19" viewBox="0 0 18 19" fill="none" xmlns="http://www.w3.org/2000/svg">
<path d="M15.7038 13.0866L16.2594 13.1746L16.2594 13.1746L15.7038 13.0866ZM12.5866 16.2038L12.4986 15.6483L12.5866 16.2038ZM12.5866 2.79617L12.6746 2.24059L12.6746 2.24059L12.5866 2.79617ZM15.7038 5.91337L16.2594 5.82538L16.2594 5.82538L15.7038 5.91337ZM7.91217 3.04997C7.66378 3.23654 7.61367 3.58916 7.80024 3.83755C7.98682 4.08594 8.33943 4.13606 8.58782 3.94948L7.91217 3.04997ZM8.58782 15.0505C8.33943 14.8639 7.98682 14.9141 7.80024 15.1624C7.61367 15.4108 7.66378 15.7635 7.91217 15.95L8.58782 15.0505ZM2.25 8.9375C1.93934 8.9375 1.6875 9.18934 1.6875 9.5C1.6875 9.81066 1.93934 10.0625 2.25 10.0625L2.25 8.9375ZM9.40052 12.0592C9.1571 12.2522 9.11623 12.6061 9.30924 12.8495C9.50225 13.0929 9.85605 13.1338 10.0995 12.9408L9.40052 12.0592ZM11.0722 11.4516L11.4217 11.8924L11.0722 11.4516ZM11.0722 7.54839L10.7227 7.98915L11.0722 7.54839ZM10.0995 6.05924C9.85605 5.86623 9.50225 5.9071 9.30924 6.15052C9.11622 6.39395 9.1571 6.74775 9.40052 6.94076L10.0995 6.05924ZM12.7351 9.688L13.2906 9.7765L13.2906 9.7765L12.7351 9.688ZM12.7351 9.312L13.2906 9.2235L13.2906 9.22349L12.7351 9.312ZM10.5 3.3125L11.25 3.3125L11.25 2.1875L10.5 2.1875L10.5 3.3125ZM15.1875 7.25L15.1875 11.75L16.3125 11.75L16.3125 7.25L15.1875 7.25ZM11.25 15.6875L10.5 15.6875L10.5 16.8125L11.25 16.8125L11.25 15.6875ZM15.1875 11.75C15.1875 12.4682 15.1858 12.7619 15.1483 12.9986L16.2594 13.1746C16.3142 12.8284 16.3125 12.4253 16.3125 11.75L15.1875 11.75ZM11.25 16.8125C11.9253 16.8125 12.3284 16.8142 12.6746 16.7594L12.4986 15.6483C12.2619 15.6858 11.9682 15.6875 11.25 15.6875L11.25 16.8125ZM15.1483 12.9986C14.9322 14.3625 13.8625 15.4322 12.4986 15.6483L12.6746 16.7594C14.5199 16.4671 15.9671 15.0199 16.2594 13.1746L15.1483 12.9986ZM11.25 3.3125C11.9682 3.3125 12.2619 3.31425 12.4986 3.35174L12.6746 2.24059C12.3284 2.18575 11.9253 2.1875 11.25 2.1875L11.25 3.3125ZM16.3125 7.25C16.3125 6.57474 16.3142 6.17162 16.2594 5.82538L15.1483 6.00136C15.1858 6.23812 15.1875 6.53175 15.1875 7.25L16.3125 7.25ZM12.4986 3.35174C13.8625 3.56776 14.9322 4.63746 15.1483 6.00137L16.2594 5.82538C15.9671 3.98009 14.5199 2.53286 12.6746 2.24059L12.4986 3.35174ZM10.5 2.1875C9.52981 2.1875 8.63298 2.50855 7.91217 3.04997L8.58782 3.94948C9.1205 3.54937 9.78178 3.3125 10.5 3.3125L10.5 2.1875ZM10.5 15.6875C9.78178 15.6875 9.12051 15.4506 8.58782 15.0505L7.91217 15.95C8.63298 16.4915 9.52981 16.8125 10.5 16.8125L10.5 15.6875ZM2.25 10.0625L12 10.0625L12 8.9375L2.25 8.9375L2.25 10.0625ZM10.0995 12.9408L11.4217 11.8924L10.7227 11.0109L9.40052 12.0592L10.0995 12.9408ZM11.4217 7.10762L10.0995 6.05924L9.40052 6.94076L10.7227 7.98915L11.4217 7.10762ZM11.4217 11.8924C11.9382 11.4829 12.3639 11.1464 12.6656 10.8459C12.9699 10.5428 13.2221 10.2064 13.2906 9.7765L12.1796 9.59949C12.1669 9.67913 12.1149 9.80651 11.8717 10.0488C11.6259 10.2937 11.2607 10.5843 10.7227 11.0109L11.4217 11.8924ZM10.7227 7.98915C11.2607 8.41572 11.6259 8.70633 11.8717 8.95116C12.1149 9.19349 12.1669 9.32087 12.1796 9.40051L13.2906 9.22349C13.2221 8.79362 12.9699 8.45722 12.6656 8.15413C12.3639 7.85356 11.9382 7.51712 11.4217 7.10762L10.7227 7.98915ZM13.2906 9.7765C13.3052 9.68492 13.3125 9.59254 13.3125 9.5L12.1875 9.5C12.1875 9.53304 12.1849 9.56624 12.1796 9.5995L13.2906 9.7765ZM13.3125 9.5C13.3125 9.40746 13.3052 9.31508 13.2906 9.2235L12.1796 9.4005C12.1849 9.43376 12.1875 9.46696 12.1875 9.5L13.3125 9.5ZM12 10.0625L12.75 10.0625L12.75 8.9375L12 8.9375L12 10.0625Z" fill="#006C8E"/>
</svg>
