<svg width="15" height="15" viewBox="0 0 15 15" fill="none" xmlns="http://www.w3.org/2000/svg">
<path d="M7.84211 9.27632C8.25632 9.27632 8.59211 8.94053 8.59211 8.52632C8.59211 8.1121 8.25632 7.77632 7.84211 7.77632V9.27632ZM7.84211 14.75C8.25632 14.75 8.59211 14.4142 8.59211 14C8.59211 13.5858 8.25632 13.25 7.84211 13.25V14.75ZM14.5588 9.02659C14.8351 8.71798 14.8089 8.24383 14.5003 7.96754C14.1917 7.69125 13.7175 7.71744 13.4412 8.02605L14.5588 9.02659ZM11.6948 11.1011L11.136 10.6009V10.6009L11.6948 11.1011ZM7.75259 11.1011L8.31137 10.6009L8.31136 10.6008L7.75259 11.1011ZM7.71667 9.93661C7.44038 9.62801 6.96623 9.60181 6.65762 9.87811C6.34902 10.1544 6.32283 10.6285 6.59912 10.9372L7.71667 9.93661ZM7.77632 3.73684C7.77632 4.83414 6.88678 5.72368 5.78947 5.72368V7.22368C7.7152 7.22368 9.27632 5.66257 9.27632 3.73684H7.77632ZM5.78947 5.72368C4.69217 5.72368 3.80263 4.83414 3.80263 3.73684H2.30263C2.30263 5.66257 3.86374 7.22368 5.78947 7.22368V5.72368ZM3.80263 3.73684C3.80263 2.63954 4.69217 1.75 5.78947 1.75V0.25C3.86374 0.25 2.30263 1.81111 2.30263 3.73684H3.80263ZM5.78947 1.75C6.88678 1.75 7.77632 2.63954 7.77632 3.73684H9.27632C9.27632 1.81111 7.7152 0.25 5.78947 0.25V1.75ZM3.73684 9.27632H7.84211V7.77632H3.73684V9.27632ZM7.84211 13.25H3.73684V14.75H7.84211V13.25ZM3.73684 13.25C2.63954 13.25 1.75 12.3605 1.75 11.2632H0.25C0.25 13.1889 1.81111 14.75 3.73684 14.75V13.25ZM3.73684 7.77632C1.81111 7.77632 0.25 9.33743 0.25 11.2632H1.75C1.75 10.1659 2.63954 9.27632 3.73684 9.27632V7.77632ZM13.4412 8.02605L11.136 10.6009L12.2536 11.6014L14.5588 9.02659L13.4412 8.02605ZM8.31136 10.6008L7.71667 9.93661L6.59912 10.9372L7.19382 11.6014L8.31136 10.6008ZM11.136 10.6009C10.6641 11.1279 10.3625 11.4622 10.1094 11.6748C9.87505 11.8718 9.77715 11.8816 9.72368 11.8816V13.3816C10.2711 13.3816 10.702 13.1362 11.0746 12.8231C11.4285 12.5256 11.812 12.0946 12.2536 11.6014L11.136 10.6009ZM7.19382 11.6014C7.6354 12.0946 8.01885 12.5256 8.3728 12.8231C8.74537 13.1362 9.17627 13.3816 9.72368 13.3816V11.8816C9.67022 11.8816 9.57232 11.8718 9.33793 11.6748C9.08492 11.4622 8.78326 11.1279 8.31137 10.6009L7.19382 11.6014Z" fill="#006C8E"/>
</svg>
