<svg width="69" height="60" viewBox="0 0 69 60" fill="none" xmlns="http://www.w3.org/2000/svg">
<path d="M10.9535 11.301C14.0747 11.301 16.6034 8.7702 16.6034 5.65106C16.6034 2.52869 14.0747 0 10.9535 0C7.83105 0 5.30249 2.52869 5.30249 5.65106C5.30249 8.7702 7.83105 11.301 10.9535 11.301Z" fill="#006C8E"/>
<path d="M30.1498 28.5255C30.1498 28.4104 30.1307 28.3005 30.1161 28.1895L38.5555 22.0644C39.0857 21.6788 39.2052 20.9331 38.8196 20.4017C38.5958 20.0944 38.2356 19.9105 37.8552 19.9105C37.6028 19.9105 37.362 19.9897 37.157 20.1377L28.7006 26.2756C28.3858 26.132 28.0404 26.0464 27.6717 26.0464H23.0748L21.9593 19.6952C21.3467 16.4927 20.0613 13.9777 17.3235 13.9777H5.71629C2.97859 13.9777 0 16.9563 0 19.6952V38.6867C0 40.0556 1.10907 41.1657 2.47799 41.1657C3.15196 41.1657 2.47799 41.1657 4.20817 41.1657L5.15032 57.3625C5.15032 58.8191 6.33229 60 7.7889 60C8.88102 60 11.6084 60 13.0648 60C14.5215 60 15.7023 58.8191 15.7023 57.3625L16.9403 25.2807H17.0025L17.7113 28.4104C17.9459 29.9029 19.2302 31.0035 20.7408 31.0035H27.672C29.0408 31.0035 30.1498 29.8944 30.1498 28.5255ZM9.14935 25.0049V15.977H12.3942V25.0049L10.6704 27.0382L9.14935 25.0049Z" fill="#006C8E"/>
<path d="M25.5986 1.95318V22.585H28.8435V5.19794H65.6182V36.2045H28.8435V32.3017H25.5986V39.4493H68.8631V1.95318H25.5986Z" fill="#006C8E"/>
</svg>
