<svg width="53" height="60" viewBox="0 0 53 60" fill="none" xmlns="http://www.w3.org/2000/svg">
<g clip-path="url(#clip0_17_543)">
<path d="M9.71729 45.9398H29.8407C30.1302 45.0961 30.497 44.2863 30.9481 43.5281H9.71729V45.9398Z" fill="#006C8E"/>
<path d="M34.9336 33.7547H9.71484V36.1641H34.9336V33.7547Z" fill="#006C8E"/>
<path d="M34.9336 23.9824H9.71484V26.393H34.9336V23.9824Z" fill="#006C8E"/>
<path d="M34.9337 14.2125H23.0474V16.6219H34.9337V14.2125Z" fill="#006C8E"/>
<path d="M5.13984 53.6449C3.89531 53.6449 2.88984 52.6395 2.88984 51.3949V19.4332H16.6465C18.1641 19.4332 19.3992 18.1969 19.3992 16.6711V2.88984H39.5145C40.7496 2.88984 41.7645 3.89531 41.7645 5.13984V37.0078C41.9602 36.9902 42.1477 36.9902 42.3445 36.9902C43.1379 36.9902 43.9043 37.0582 44.6543 37.1953V5.13984C44.6531 2.30156 42.3434 0 39.5133 0H18.6574C17.1574 0 15.7172 0.588281 14.6602 1.65352L1.65352 14.6602C0.588281 15.7172 0 17.1574 0 18.6574V51.3949C0 54.2332 2.30156 56.5336 5.13984 56.5336H30.7512C30.2566 55.6301 29.8652 54.6598 29.5922 53.6449H5.13984ZM16.8328 3.57187V15.1289C16.8328 16.3746 16.3477 16.8598 15.0937 16.8598H3.53789L16.8328 3.57187Z" fill="#006C8E"/>
<path d="M42.3433 40.3969C36.9304 40.3969 32.5417 44.7855 32.5417 50.1984C32.5417 55.6125 36.9304 60 42.3433 60C47.7562 60 52.1449 55.6113 52.1449 50.1984C52.1449 44.7844 47.7562 40.3969 42.3433 40.3969ZM48.6761 47.0004L43.4425 53.3461C43.1109 53.7645 42.6222 54.0258 42.0914 54.0715C41.5605 54.116 41.0332 53.9402 40.6371 53.5828L37.4578 50.7258C37.2187 50.5113 37.0746 50.2102 37.0582 49.8891C37.0417 49.5691 37.1542 49.2539 37.3699 49.016L37.7976 48.5437C38.0144 48.3059 38.3156 48.1629 38.6378 48.1488C38.9589 48.1348 39.2742 48.2484 39.5109 48.4664L42.1664 50.9098L47.5546 45.9328C47.8582 45.6668 48.3117 45.675 48.6035 45.9551C48.8941 46.2316 48.9257 46.6863 48.6761 47.0004Z" fill="#006C8E"/>
</g>
<defs>
<clipPath id="clip0_17_543">
<rect width="52.1449" height="60" fill="white"/>
</clipPath>
</defs>
</svg>
