<svg width="60" height="60" viewBox="0 0 60 60" fill="none" xmlns="http://www.w3.org/2000/svg">
<path d="M24.8077 21.9367C24.7098 21.8788 24.585 21.8758 24.4841 21.9337C24.3862 21.9902 24.3237 22.0971 24.3237 22.2129V30.3784V38.5454C24.3237 38.6627 24.3861 38.7681 24.4841 38.8246C24.5851 38.8839 24.7098 38.881 24.8077 38.8216L38.4901 30.6547C38.5881 30.5982 38.6461 30.4928 38.6461 30.3785C38.6461 30.2672 38.5882 30.1603 38.4901 30.1038L24.8077 21.9367Z" fill="#006C8E"/>
<path fill-rule="evenodd" clip-rule="evenodd" d="M51.7676 25.0284L58.3065 25.9794C59.2622 26.0548 59.9997 26.8519 59.9998 27.8108V32.1873C59.9998 33.1444 59.2624 33.9448 58.3066 34.0169L51.7677 34.9664C51.3581 34.9994 51.0051 35.2581 50.8482 35.6365L48.7282 40.7521C48.5699 41.1319 48.6404 41.5665 48.904 41.8757L52.8162 47.1326C53.4375 47.8607 53.3983 48.9433 52.7187 49.6244L49.6229 52.7189C48.9466 53.3967 47.859 53.4375 47.1326 52.8146L41.8771 48.9024C41.568 48.639 41.1319 48.5683 40.7551 48.7269L35.6365 50.8452C35.2581 51.0039 34.9994 51.3585 34.9664 51.7679L34.0185 58.3052C33.9433 59.2608 33.1477 60 32.189 60H27.8108C26.8523 60 26.0566 59.2608 25.9813 58.3052L25.0319 51.7679C25.0002 51.3585 24.7415 51.0039 24.3632 50.8452L19.2445 48.7269C18.8662 48.5683 18.4332 48.639 18.121 48.9024L12.8671 52.8146C12.1407 53.4375 11.0548 53.3967 10.3754 52.7189L7.28094 49.6244C6.60292 48.9433 6.56211 47.8607 7.1835 47.1326L11.094 41.8757C11.3594 41.5665 11.43 41.1319 11.2715 40.7521L9.15143 35.6365C8.99771 35.2581 8.63997 34.9994 8.23351 34.9664L1.69162 34.0169C0.737644 33.9448 0 33.1444 0 32.1873V27.8108C0 26.8521 0.737468 26.055 1.69162 25.9795L8.23351 25.0301C8.63997 24.9971 8.99771 24.7398 9.15143 24.36L11.2715 19.2444C11.43 18.8676 11.3593 18.433 11.094 18.1238L7.1835 12.8671C6.56229 12.1389 6.6031 11.0531 7.28094 10.3752L10.3754 7.28077C11.0548 6.60275 12.1407 6.56053 12.8671 7.1835L18.121 11.0939C18.4332 11.3609 18.8662 11.4298 19.2445 11.2729L24.3632 9.15144C24.7413 8.99613 25.0002 8.63997 25.0301 8.23193L25.9811 1.69461C26.0548 0.73747 26.8521 0 27.8106 0H32.1888C33.146 0 33.9431 0.73747 34.0184 1.69461L34.9662 8.23193C34.9992 8.63681 35.258 8.99613 35.6363 9.15144L40.7534 11.2729C41.1301 11.4298 41.5663 11.3609 41.8755 11.0939L47.1324 7.1835C47.8588 6.55895 48.9463 6.60292 49.6227 7.28077L52.7185 10.3752C53.3966 11.0531 53.4374 12.1388 52.816 12.8671L48.9039 18.1224C48.6355 18.433 48.5695 18.8662 48.728 19.2444L50.848 24.36C51.0049 24.7396 51.3579 24.9971 51.7676 25.0284ZM29.9998 45.5554C38.5909 45.5554 45.5553 38.5909 45.5553 29.9999C45.5553 21.4088 38.5909 14.4444 29.9998 14.4444C21.4088 14.4444 14.4443 21.4088 14.4443 29.9999C14.4443 38.5909 21.4088 45.5554 29.9998 45.5554Z" fill="#006C8E"/>
</svg>
